HIERARCHY
ROOT ui
{
	 OFFSET 0 0 0
	 CHANNELS 3 XPosition YPosition Z Position
	 EndSite
	 {
	 OFFSET 0 -1 0
	 }
}
ROOT li
{
	 OFFSET 0 0 0
	 CHANNELS 3 XPosition YPosition Z Position
	 EndSite
	 {
	 OFFSET 0 -1 0
	 }
}
ROOT ul
{
	 OFFSET 0 0 0
	 CHANNELS 3 XPosition YPosition Z Position
	 EndSite
	 {
	 OFFSET 0 -1 0
	 }
}
ROOT ll
{
	 OFFSET 0 0 0
	 CHANNELS 3 XPosition YPosition Z Position
	 EndSite
	 {
	 OFFSET 0 -1 0
	 }
}
ROOT tt
{
	 OFFSET 0 0 0
	 CHANNELS 3 XPosition YPosition Z Position
	 EndSite
	 {
	 OFFSET 0 -1 0
	 }
}
ROOT tb
{
	 OFFSET 0 0 0
	 CHANNELS 3 XPosition YPosition Z Position
	 EndSite
	 {
	 OFFSET 0 -1 0
	 }
}
ROOT td
{
	 OFFSET 0 0 0
	 CHANNELS 3 XPosition YPosition Z Position
	 EndSite
	 {
	 OFFSET 0 -1 0
	 }
}
ROOT v
{
	 OFFSET 0 0 0
	 CHANNELS 3 XPosition YPosition Z Position
	 EndSite
	 {
	 OFFSET 0 -1 0
	 }
}
ROOT bn
{
	 OFFSET 0 0 0
	 CHANNELS 3 XPosition YPosition Z Position
	 EndSite
	 {
	 OFFSET 0 -1 0
	 }
}
MOTION
Frames: 21
Frame Time: 0.002
0.002017232894897461	3.1955099105834963E-4	0		0.46685256958007815	-2.4189541015625	0		-1.0270093994140626	0.12487555694580078	0		-0.5166807250976563	-2.5592119140625	0		1.5279488525390625	-0.7207919311523437	0		3.230269775390625	-0.1297191162109375	0		4.5417724609375	0.005948386192321777	0		5.62197900390625	0.18617820739746094	0		-0.28247418212890624	5.90002490234375	0		
0.022800212860107423	0.004605148792266846	0		0.5126774291992188	-2.41508544921875	0		-1.0322249755859374	0.12958444213867187	0		-0.5596871337890625	-2.544847900390625	0		1.522783203125	-0.7140353393554687	0		3.197892822265625	-0.13446908569335939	0		4.5445068359375	0.007626187801361084	0		5.61953076171875	0.17199240112304687	0		-0.28285012817382815	5.9016630859375	0		
-0.005547355175018311	0.0017350399494171142	0		0.519201416015625	-2.428539794921875	0		-0.9606234130859375	0.12299375152587891	0		-0.49516900634765626	-2.559309326171875	0		1.5404088134765626	-0.719658447265625	0		3.218625732421875	-0.13311187744140626	0		4.5452060546875	0.007349781036376953	0		5.61293701171875	0.17703068542480468	0		-0.28324755859375	5.902310546875	0		
-0.0048595800399780275	0.0013840880393981934	0		0.4919578857421875	-2.427405029296875	0		-1.03996044921875	0.12198320007324219	0		-0.5643189697265625	-2.552481689453125	0		1.5411107177734376	-0.7199790649414063	0		3.210198486328125	-0.14024574279785157	0		4.54589404296875	0.0070880532264709474	0		5.617587890625	0.15913729858398437	0		-0.2826754760742187	5.9019541015625	0		
-0.009108387947082519	0.006134095191955566	0		0.49267135620117186	-2.427729248046875	0		-1.0342470703125	0.12454344940185547	0		-0.530692626953125	-2.558385986328125	0		1.527707763671875	-0.7250444946289063	0		3.219984375	-0.13367022705078124	0		4.54142431640625	-0.0010704400539398194	0		5.6138828125	0.17276205444335938	0		-0.28114315795898437	5.90059765625	0		
-0.0035599570274353026	7.355740070343018E-4	0		0.4694410095214844	-2.4226279296875	0		-1.106520263671875	0.13044525146484376	0		-0.5588349609375	-2.548220703125	0		1.52552587890625	-0.715279541015625	0		3.2295859375	-0.13607380676269532	0		4.55127734375	0.01154966163635254	0		5.617310546875	0.18958543395996094	0		-0.2816074523925781	5.901294921875	0		
0.001084489941596985	0.003374768018722534	0		0.5141600341796875	-2.4186572265625	0		-1.0289564208984374	0.12782820129394531	0		-0.5232645874023437	-2.55311572265625	0		1.5261337890625	-0.7155429077148437	0		3.234266845703125	-0.1313729248046875	0		4.54089013671875	0.012530353546142578	0		5.62188232421875	0.17005966186523438	0		-0.28014340209960936	5.89997998046875	0		
-0.00733301305770874	0.005257091999053955	0		0.4608106994628906	-2.415004638671875	0		-1.0324783935546875	0.12360778045654297	0		-0.5267369384765626	-2.557326904296875	0		1.5436075439453125	-0.7210709838867188	0		3.230732666015625	-0.13651431274414064	0		4.54833447265625	0.006227287769317627	0		5.61518017578125	0.17525230407714842	0		-0.28068804931640623	5.90072216796875	0		
-0.0019239100217819213	-7.286100089550018E-5	0		0.5112220153808594	-2.423086181640625	0		-0.9570137939453125	0.121076904296875	0		-0.53907763671875	-2.550363525390625	0		1.5123724365234374	-0.7057515869140625	0		3.2222646484375	-0.13455201721191407	0		4.53396630859375	0.014313181877136231	0		5.60912841796875	0.17698699951171876	0		-0.2802971496582031	5.90047119140625	0		
-0.026484163284301757	1.2618100643157958E-4	0		0.47168630981445314	-2.42362548828125	0		-1.0705296630859376	0.12476204681396484	0		-0.5606644897460937	-2.554223388671875	0		1.5245821533203125	-0.720150390625	0		3.228567138671875	-0.14282270812988282	0		4.5423671875	0.012029155731201172	0		5.6158232421875	0.1713043212890625	0		-0.25062324523925783	5.91975146484375	0		
0.0029374589920043944	0.0024362618923187257	0		0.5270717163085937	-2.42574609375	0		-1.0211969604492188	0.1217205810546875	0		-0.5561687622070313	-2.549499755859375	0		1.5390330810546875	-0.716565185546875	0		3.239212646484375	-0.12714719390869142	0		4.55170703125	0.009743026733398438	0		5.62616064453125	0.18279586791992186	0		-0.2777173767089844	5.89700634765625	0		
-0.02274468421936035	0.0026959099769592286	0		0.5035029296875	-2.420514404296875	0		-1.026799072265625	0.12663015747070314	0		-0.5208961181640624	-2.55427392578125	0		1.5473380126953125	-0.7178596801757813	0		3.2274794921875	-0.1300838317871094	0		4.5540380859375	0.010585818290710449	0		5.61929150390625	0.18808393859863282	0		-0.41275863647460936	5.8811015625	0		
0.025436843872070312	-0.0022700300216674804	0		0.5147632446289062	-2.421852783203125	0		-1.0306114501953125	0.12253029632568359	0		-0.5246829223632813	-2.558369140625	0		1.5286201171875	-0.7166831665039063	0		3.20965478515625	-0.13490739440917968	0		4.5494287109375	0.018554113388061524	0		5.61652587890625	0.17417997741699218	0		-0.2792240295410156	5.89969677734375	0		
-0.02533818054199219	-5.507339835166931E-4	0		0.49888262939453126	-2.427718017578125	0		-1.030411376953125	0.12238381958007813	0		-0.49155267333984376	-2.564066650390625	0		1.545739501953125	-0.722096923828125	0		3.22971923828125	-0.14335926818847655	0		4.5363115234375	-3.312390148639679E-4	0		5.613697265625	0.15682608032226564	0		-0.2790650329589844	5.8995556640625	0		
0.026652935028076172	-0.010546215057373047	0		0.5229577026367187	-2.433240234375	0		-1.0302620849609374	0.1222567901611328	0		-0.5612785034179687	-2.557013916015625	0		1.525912841796875	-0.7208740844726562	0		3.22400537109375	-0.1353642120361328	0		4.54852734375	0.0033683269023895264	0		5.6167529296875	0.17038716125488282	0		-0.2789459228515625	5.8994326171875	0		
-0.022035654067993165	0.002171807050704956	0		0.47627828979492187	-2.420553955078125	0		-1.064071044921875	0.12771932983398437	0		-0.5221546630859375	-2.556777099609375	0		1.5349664306640625	-0.7241238403320313	0		3.233073486328125	-0.137607421875	0		4.54376513671875	0.011364404678344726	0		5.619763671875	0.18223533630371094	0		-0.2788664245605469	5.89932666015625	0		
0.024083656311035158	0.005310009956359863	0		0.5193887329101563	-2.418363525390625	0		-1.02603515625	0.12598955535888673	0		-0.55703271484375	-2.55327783203125	0		1.5291458740234376	-0.7171065673828125	0		3.231334716796875	-0.1256528778076172	0		4.54382373046875	0.011291089057922364	0		5.62398876953125	0.1681011962890625	0		-0.27882626342773437	5.89923876953125	0		
-0.02195962905883789	0.0020143489837646483	0		0.49924761962890624	-2.42809423828125	0		-1.0260179443359374	0.12591683959960936	0		-0.49118560791015625	-2.564457763671875	0		1.5401973876953126	-0.715357421875	0		3.23723388671875	-0.13281365966796874	0		4.54384130859375	0.011233867645263672	0		5.61690576171875	0.17348719787597655	0		-0.2788251953125	5.89916796875	0		
0.021030246734619142	0.0022386360168457032	0		0.5153323364257812	-2.422415283203125	0		-1.0301058349609375	0.12192920684814453	0		-0.5719354858398438	-2.54815185546875	0		1.54606005859375	-0.7225054321289063	0		3.228248291015625	-0.1307058563232422	0		4.53585498046875	0.013328595161437988	0		5.6168916015625	0.17342373657226562	0		-0.2788629150390625	5.89911474609375	0		
-0.025087017059326172	-0.0010235450267791749	0		0.49918524169921874	-2.428179931640625	0		-1.0260960693359376	0.12582189178466796	0		-0.5261917724609375	-2.56096142578125	0		1.526025634765625	-0.7212003784179688	0		3.229973388671875	-0.14376307678222655	0		4.54862841796875	0.003090364933013916	0		5.61682763671875	0.16993341064453124	0		-0.27795590209960935	5.89806103515625	0		
0.008785537719726563	-0.003615705966949463	0		0.4762268981933594	-2.420813232421875	0		-1.0601136474609374	0.13036769104003906	0		-0.5550983276367187	-2.55049853515625	0		1.5369547119140625	-0.720400146484375	0		3.24015234375	-0.1279412841796875	0		4.5526396484375	0.009019719123840333	0		5.62683251953125	0.1816370391845703	0		-0.24971974182128906	5.9185654296875	0		
